<svg width="29" height="29" viewBox="0 0 29 29" fill="none" xmlns="http://www.w3.org/2000/svg">
<path d="M2.30662 13.0401L8.99769 17.5008L6.32126 25.084C6.1362 25.6083 6.31974 26.1918 6.77161 26.5159C7.22349 26.8399 7.83506 26.8264 8.27228 26.4829L14.493 21.5952L21.2191 26.9761C21.6606 27.3293 22.2842 27.3422 22.7399 27.0075C23.1956 26.6728 23.3699 26.0739 23.165 25.5469L20.0401 17.5115L27.1625 13.06C27.6354 12.7645 27.8553 12.1914 27.7016 11.6554C27.5478 11.1194 27.0576 10.75 26.5 10.75H17.9501L15.7044 2.66545C15.5541 2.12442 15.0615 1.75 14.5 1.75C13.9385 1.75 13.4459 2.12442 13.2956 2.66545L11.0499 10.75H3C2.44917 10.75 1.96326 11.1106 1.80364 11.6378C1.64401 12.165 1.8483 12.7345 2.30662 13.0401Z" stroke="#DADADA" stroke-width="2.5" stroke-linejoin="round"/>
</svg>
